<?xml version="1.0" standalone="no"?>
<!DOCTYPE svg PUBLIC "-//W3C//DTD SVG 20010904//EN"
 "http://www.w3.org/TR/2001/REC-SVG-20010904/DTD/svg10.dtd">
<svg version="1.0" xmlns="http://www.w3.org/2000/svg"
 width="547.200000pt" height="561.600000pt" viewBox="0 0 547.200000 561.600000"
 preserveAspectRatio="xMidYMid meet">
<metadata>
Created by potrace 1.16, written by Peter Selinger 2001-2019
</metadata>
<g transform="translate(0.000000,561.600000) scale(0.024320,-0.024960)"
fill="#000000" stroke="none">
<path d="M13945 17470 c-179 -57 -305 -180 -360 -349 -57 -176 54 -445 361
-871 184 -256 249 -340 263 -340 19 0 488 157 624 209 314 120 510 248 575
377 61 120 54 302 -17 442 -136 270 -487 369 -745 211 -27 -16 -50 -28 -51
-27 -1 2 -15 33 -32 69 -103 223 -388 352 -618 279z"/>
<path d="M12910 16795 c-7 -9 -15 -83 -22 -197 -9 -163 -12 -185 -30 -200 -11
-10 -72 -49 -137 -87 -130 -77 -146 -91 -136 -120 8 -26 16 -28 200 -42 83 -6
150 -12 151 -13 0 0 38 -73 83 -161 93 -180 97 -185 121 -185 10 0 22 6 28 13
5 6 13 97 16 201 4 105 8 191 9 191 1 1 68 32 149 70 82 37 153 74 159 81 15
19 1 53 -24 59 -12 3 -93 11 -180 17 l-157 13 -81 174 c-44 96 -85 181 -91
188 -14 17 -43 17 -58 -2z m179 -426 c12 -9 42 -17 78 -18 32 -1 75 -6 96 -9
l38 -7 -95 -43 c-54 -25 -96 -51 -98 -60 -3 -9 -6 -62 -7 -117 -2 -55 -4 -101
-5 -102 -1 -1 -24 41 -51 93 -28 53 -55 99 -60 104 -6 5 -57 12 -113 16 -56 4
-102 10 -102 13 0 3 39 29 86 56 47 28 89 57 94 65 6 12 19 158 20 230 0 8 23
-34 50 -95 28 -60 59 -117 69 -126z"/>
<path d="M15307 16203 c-14 -13 -6 -53 37 -197 l45 -148 -130 -145 c-73 -81
-129 -151 -127 -160 2 -9 12 -21 23 -28 17 -11 44 -5 198 52 l178 65 119 -116
c102 -100 124 -117 147 -114 41 5 40 32 -11 207 l-45 154 139 144 c79 81 140
151 140 162 0 26 -25 44 -52 39 -13 -3 -98 -29 -189 -58 l-165 -53 -130 102
c-117 92 -158 114 -177 94z m211 -225 c40 -32 79 -58 85 -58 7 0 61 16 122 35
l109 34 -81 -82 c-103 -104 -106 -111 -87 -173 8 -27 21 -71 29 -97 l14 -48
-77 71 c-42 38 -84 70 -92 70 -8 0 -57 -16 -109 -36 -51 -19 -95 -33 -98 -30
-2 2 28 39 66 82 48 54 71 87 71 104 0 14 -11 61 -25 105 -14 44 -25 84 -25
88 0 11 13 2 98 -65z"/>
<path d="M18192 15905 c-358 -65 -622 -383 -623 -750 -1 -269 123 -502 346
-650 32 -21 55 -43 55 -54 0 -23 -177 -1102 -182 -1106 -1 -1 -31 2 -66 8 -34
5 -64 8 -66 6 -3 -4 -65 -383 -208 -1260 l-43 -267 -53 -6 c-95 -11 -189 -76
-235 -161 -31 -58 -31 -193 0 -251 l22 -41 -39 -38 c-60 -59 -83 -123 -78
-216 3 -54 11 -87 26 -113 l21 -36 -44 -41 c-64 -59 -89 -118 -89 -205 0 -61
4 -81 30 -132 l31 -60 -92 -123 c-183 -246 -358 -416 -533 -518 -83 -48 -105
-58 -197 -82 -323 -86 -647 119 -913 578 -23 39 -42 81 -42 93 0 12 25 117 55
233 44 168 68 238 115 337 255 543 448 1208 500 1729 34 343 -19 751 -142
1099 -53 148 -177 398 -265 532 -414 631 -1078 1045 -1823 1136 -196 24 -470
15 -639 -20 -313 -67 -706 -202 -1131 -389 -80 -35 -186 -74 -236 -87 l-91
-24 -89 61 c-534 365 -1242 572 -1884 549 -634 -22 -1243 -267 -1686 -679
-505 -469 -792 -1034 -890 -1752 -26 -192 -24 -541 5 -735 57 -383 187 -748
379 -1064 l60 -99 108 -431 107 -431 -51 -88 c-143 -247 -340 -447 -523 -531
-467 -214 -971 157 -1506 1108 -40 72 -82 161 -93 197 -11 36 -31 81 -45 100
-67 92 -65 86 -43 137 48 108 16 235 -82 325 l-57 52 -81 544 c-45 298 -79
547 -76 552 3 5 -17 71 -44 147 -40 108 -303 837 -414 1144 -19 54 -22 58 -51
55 l-31 -2 -32 167 c-17 93 -38 175 -45 185 -8 9 -77 47 -154 84 -77 37 -248
119 -380 184 -132 64 -270 130 -307 147 l-66 30 23 62 c13 33 84 215 159 404
75 188 136 356 136 372 0 59 -67 95 -118 64 -26 -15 -49 -67 -211 -476 -127
-323 -180 -467 -175 -482 14 -44 -11 -30 479 -266 429 -206 473 -229 478 -246
3 -11 13 -59 22 -109 9 -49 19 -99 21 -111 5 -17 0 -22 -25 -27 -21 -5 -32
-13 -35 -29 -3 -13 -19 -207 -36 -433 -17 -225 -42 -540 -55 -699 -13 -159
-22 -293 -19 -297 2 -4 38 -234 79 -511 41 -276 77 -513 80 -524 4 -18 -3 -24
-39 -38 -101 -39 -175 -139 -184 -252 -6 -80 17 -147 75 -213 l42 -49 -21 -43
c-34 -67 -32 -167 5 -242 16 -31 45 -71 66 -88 l37 -31 -25 -50 c-32 -64 -33
-163 -3 -230 29 -67 97 -131 166 -157 31 -11 66 -21 76 -21 12 0 20 -7 20 -17
1 -32 146 -983 151 -988 3 -2 77 7 165 20 87 13 280 42 428 64 148 23 270 42
271 43 1 2 -33 237 -76 523 -74 492 -77 521 -61 535 37 32 75 91 90 144 l17
54 64 -101 c148 -233 351 -480 507 -618 167 -148 365 -255 526 -286 113 -21
266 -13 370 20 211 67 434 250 593 485 38 57 71 100 72 95 1 -4 52 -199 112
-433 399 -1551 700 -2586 976 -3360 297 -829 559 -1288 801 -1402 63 -30 77
-33 169 -33 177 0 303 49 427 164 167 156 274 382 339 719 20 101 26 119 60
159 21 26 40 62 44 82 6 38 -6 146 -54 466 -61 411 -84 724 -84 1130 0 617 78
1069 240 1390 58 114 92 165 167 244 150 157 321 221 592 221 224 0 413 -35
559 -104 144 -68 232 -151 313 -296 97 -172 152 -501 152 -900 0 -145 -3 -190
-59 -825 -17 -187 -36 -412 -43 -500 -18 -218 -17 -964 0 -1105 58 -462 185
-712 422 -828 l75 -37 150 0 c132 1 157 3 206 23 295 118 558 496 807 1157
245 654 463 1466 846 3150 52 231 122 537 156 679 33 143 60 262 60 265 0 3
16 -19 36 -49 174 -265 375 -444 582 -520 251 -91 507 -45 772 141 149 104
408 387 566 617 1 2 13 0 28 -4 16 -4 26 -13 26 -25 0 -10 -24 -168 -54 -351
-30 -183 -56 -346 -58 -362 l-3 -30 380 -61 c377 -61 380 -61 387 -41 4 12 32
176 62 366 31 190 58 354 61 365 3 14 18 24 47 32 88 24 174 113 199 208 14
51 6 131 -19 188 l-20 45 48 50 c82 85 104 220 53 319 l-21 41 29 28 c93 89
118 229 61 340 -25 49 -58 84 -110 119 -32 21 -41 32 -37 49 3 11 41 242 85
511 44 270 99 604 122 743 33 202 39 255 28 262 -7 4 -39 11 -72 14 -50 6 -59
10 -56 24 3 9 45 263 94 565 71 440 92 547 104 547 33 0 211 69 260 100 228
146 356 365 367 625 10 220 -59 405 -211 564 -181 190 -441 274 -704 226z
m302 -171 c201 -52 377 -227 431 -430 21 -79 22 -222 0 -303 -47 -182 -177
-334 -349 -410 -83 -36 -206 -53 -302 -41 -172 22 -294 86 -403 213 -83 97
-141 256 -141 387 0 127 56 283 138 387 70 88 192 165 313 197 74 20 236 20
313 0z m-8499 -279 c593 -69 1169 -307 1580 -654 198 -167 346 -334 539 -606
54 -75 100 -134 103 -132 7 8 -25 149 -59 257 -59 185 -133 318 -280 502 -39
47 -70 90 -70 94 1 18 542 237 799 323 299 101 585 161 764 161 691 0 1370
-325 1812 -864 125 -154 199 -268 287 -441 148 -292 224 -554 255 -882 8 -86
15 -166 15 -179 0 -18 -25 -37 -132 -100 -73 -42 -198 -116 -278 -164 -80 -48
-257 -153 -395 -235 -137 -82 -353 -210 -480 -285 -126 -76 -251 -149 -276
-164 l-46 -26 -439 50 c-242 27 -680 77 -974 110 -294 33 -644 73 -777 88
l-243 28 0 -497 0 -496 23 3 c12 3 434 54 937 114 503 60 927 112 941 115 24
4 27 1 31 -30 2 -19 3 -35 1 -35 -2 0 -355 -43 -786 -95 -430 -52 -864 -105
-964 -117 l-183 -22 0 -258 0 -259 33 6 c17 2 239 30 492 60 253 31 676 83
940 115 263 33 480 58 481 57 0 -1 4 -17 7 -34 4 -22 3 -33 -5 -33 -6 0 -106
-11 -222 -25 -363 -44 -1020 -124 -1276 -155 -135 -17 -291 -36 -347 -42
l-103 -11 0 -414 c0 -390 1 -414 18 -409 320 95 925 276 1007 301 61 18 250
75 420 125 171 51 498 148 729 216 230 69 432 127 450 130 17 2 207 49 421
103 215 54 391 98 392 97 1 -1 -11 -50 -27 -110 -43 -160 -187 -762 -275
-1151 -429 -1892 -596 -2529 -843 -3230 -229 -648 -477 -1052 -715 -1169 -68
-33 -91 -39 -166 -44 -68 -3 -101 0 -142 13 -340 111 -449 713 -353 1945 8
107 31 368 51 580 30 317 37 425 36 610 -1 438 -44 700 -152 925 -81 168 -183
283 -335 373 -115 69 -279 120 -454 143 -132 16 -391 14 -496 -5 -529 -97
-834 -635 -906 -1596 -5 -74 -10 -247 -10 -385 0 -408 26 -748 90 -1194 42
-288 49 -363 21 -221 l-17 85 -8 -95 c-44 -563 -167 -911 -377 -1065 -114 -84
-293 -112 -388 -62 -327 175 -780 1330 -1365 3477 -57 212 -139 518 -181 680
-42 162 -92 354 -111 425 -88 334 -286 1136 -282 1140 3 3 76 -11 164 -30 87
-19 400 -86 695 -149 492 -105 573 -125 960 -241 233 -69 476 -141 539 -160
154 -46 1119 -333 1345 -401 99 -30 183 -54 187 -54 5 0 8 185 8 410 0 226 -3
410 -6 410 -4 0 -415 49 -913 110 -498 60 -930 113 -958 116 -46 5 -53 9 -53
28 0 11 4 26 8 33 8 12 1 13 1222 -137 316 -39 603 -73 638 -77 l62 -6 0 257
c0 141 -4 256 -8 256 -9 0 -1787 216 -1861 226 -42 5 -43 6 -37 37 3 17 7 31
9 32 1 1 421 -49 932 -111 512 -63 938 -114 948 -114 16 0 17 30 17 490 0 385
-3 490 -12 490 -7 0 -267 -29 -578 -65 -311 -35 -847 -96 -1191 -135 l-626
-70 -74 48 c-41 27 -243 158 -449 292 -206 134 -420 272 -475 308 -55 36 -176
115 -270 175 -164 106 -736 478 -744 483 -9 7 47 227 96 376 227 693 729 1250
1374 1527 219 94 442 156 644 180 50 6 101 13 115 15 73 10 439 4 555 -9z
m8238 -1089 c37 -7 69 -15 70 -17 4 -4 -163 -1022 -168 -1027 -4 -4 -177 26
-183 33 -3 2 32 229 76 503 45 274 82 503 82 510 0 15 37 15 123 -2z m-13511
-871 c103 -285 184 -522 180 -525 -8 -7 -492 -83 -497 -78 -1 2 17 244 41 538
24 294 43 548 44 563 0 24 4 28 22 25 20 -3 44 -63 210 -523z m2798 -526 c63
-42 150 -97 193 -125 42 -27 126 -81 185 -119 279 -182 895 -582 1115 -724 58
-38 97 -70 97 -80 0 -21 -178 -1082 -182 -1086 -4 -3 -1240 263 -1245 269 -2
2 -20 66 -40 141 -30 118 -42 149 -90 223 -76 121 -183 343 -237 494 -118 329
-164 630 -153 993 4 105 9 200 13 212 6 20 12 17 117 -51 62 -40 164 -106 227
-147z m8203 -201 c-11 -100 -57 -363 -85 -488 -101 -451 -384 -1218 -461
-1250 -27 -12 -749 -192 -752 -188 -1 2 -42 247 -92 546 l-90 543 271 161
c149 89 336 200 416 247 79 47 288 172 465 278 176 106 323 192 327 193 3 0 4
-19 1 -42z m2015 -1143 c191 -31 361 -60 379 -66 67 -22 106 -103 83 -173 -15
-47 -75 -100 -104 -91 -31 10 -447 79 -626 105 -173 24 -199 33 -219 74 -42
87 24 203 117 205 12 1 178 -24 370 -54z m-12532 -26 c53 -25 90 -91 81 -145
-9 -52 -43 -94 -77 -94 -40 0 -728 -108 -767 -121 -36 -12 -55 -4 -92 35 -19
20 -26 40 -29 86 -4 59 -4 61 35 99 26 26 52 42 78 47 84 16 681 112 704 113
14 0 44 -8 67 -20z m12347 -359 c138 -22 305 -49 371 -59 123 -20 151 -32 190
-84 28 -38 26 -106 -5 -151 -45 -67 -38 -67 -478 3 -218 35 -403 67 -413 72
-28 15 -61 95 -54 134 11 55 80 122 129 125 4 0 121 -18 260 -40z m-12233 -75
c44 -46 51 -107 19 -164 -12 -22 -30 -43 -38 -46 -9 -3 -183 -32 -386 -65
-204 -33 -381 -63 -395 -66 -15 -3 -38 3 -58 16 -100 62 -94 204 11 250 24 10
186 40 377 69 184 29 342 53 350 55 34 5 90 -18 120 -49z m12286 -359 c198
-31 354 -61 373 -70 49 -26 73 -71 68 -132 -7 -94 -71 -142 -174 -130 -175 20
-691 110 -718 125 -126 72 -79 261 65 261 25 0 198 -24 386 -54z m-12240 -22
c66 -31 95 -125 59 -194 -24 -47 -70 -67 -205 -89 -661 -107 -628 -103 -681
-68 -89 59 -88 174 2 238 17 13 124 34 364 72 379 61 412 64 461 41z"/>
<path d="M10040 13854 c-243 -36 -436 -158 -553 -351 -48 -79 -94 -220 -102
-316 l-7 -78 83 3 84 3 7 68 c25 218 156 389 363 473 64 25 81 28 195 29 106
0 135 -3 189 -23 194 -70 329 -230 369 -435 l17 -88 80 3 80 3 -3 40 c-22 275
-203 517 -462 618 -114 45 -246 64 -340 51z"/>
<path d="M12865 13845 c-103 -19 -174 -46 -264 -100 -102 -61 -177 -138 -241
-244 -63 -106 -90 -191 -97 -303 l-6 -88 82 0 81 0 0 38 c0 66 38 193 79 262
68 115 195 217 315 256 66 21 229 29 295 15 154 -33 314 -159 383 -301 36 -75
58 -154 58 -211 l0 -30 80 2 c44 1 83 5 85 10 9 13 -16 150 -37 214 -49 143
-166 291 -292 369 -99 63 -155 85 -260 107 -104 22 -162 22 -261 4z"/>
</g>
</svg>
